<?xml version="1.0" encoding="UTF-8" standalone="no"?>
<!-- Created with Inkscape (http://www.inkscape.org/) -->

<svg
   xmlns:dc="http://purl.org/dc/elements/1.1/"
   xmlns:cc="http://creativecommons.org/ns#"
   xmlns:rdf="http://www.w3.org/1999/02/22-rdf-syntax-ns#"
   xmlns:svg="http://www.w3.org/2000/svg"
   xmlns="http://www.w3.org/2000/svg"
   xmlns:sodipodi="http://sodipodi.sourceforge.net/DTD/sodipodi-0.dtd"
   xmlns:inkscape="http://www.inkscape.org/namespaces/inkscape"
   width="700"
   height="700"
   id="svg4655"
   version="1.1"
   inkscape:version="0.48.4 r9939"
   sodipodi:docname="stormwater.svg">
  <defs
     id="defs4657">
    <clipPath
       clipPathUnits="userSpaceOnUse"
       id="clipPath3363">
      <path
         inkscape:connector-curvature="0"
         d="m 456.44,556.38 52.999,0 0,53 -52.999,0 0,-53 z"
         id="path3365" />
    </clipPath>
    <clipPath
       clipPathUnits="userSpaceOnUse"
       id="clipPath3309">
      <path
         inkscape:connector-curvature="0"
         d="m 456.44,621.5 52.999,0 0,52.999 -52.999,0 0,-52.999 z"
         id="path3311" />
    </clipPath>
    <clipPath
       clipPathUnits="userSpaceOnUse"
       id="clipPath3363-1">
      <path
         inkscape:connector-curvature="0"
         d="m 456.44,556.38 52.999,0 0,53 -52.999,0 0,-53 z"
         id="path3365-1" />
    </clipPath>
    <clipPath
       clipPathUnits="userSpaceOnUse"
       id="clipPath3567">
      <path
         inkscape:connector-curvature="0"
         d="m 456.44,424.34 52.999,0 0,53 -52.999,0 0,-53 z"
         id="path3569" />
    </clipPath>
  </defs>
  <sodipodi:namedview
     id="base"
     pagecolor="#ffffff"
     bordercolor="#666666"
     borderopacity="1.0"
     inkscape:pageopacity="0.0"
     inkscape:pageshadow="2"
     inkscape:zoom="0.35355339"
     inkscape:cx="-381.41647"
     inkscape:cy="361.36072"
     inkscape:document-units="px"
     inkscape:current-layer="g3565"
     showgrid="true"
     inkscape:window-width="1920"
     inkscape:window-height="1028"
     inkscape:window-x="0"
     inkscape:window-y="0"
     inkscape:window-maximized="1"
     showguides="true"
     inkscape:snap-global="true"
     objecttolerance="10000"
     guidetolerance="20"
     inkscape:snap-bbox="true"
     inkscape:bbox-paths="false"
     inkscape:bbox-nodes="true"
     inkscape:snap-bbox-midpoints="true"
     gridtolerance="10">
    <inkscape:grid
       type="xygrid"
       id="grid4920"
       empspacing="5"
       visible="true"
       enabled="true"
       snapvisiblegridlinesonly="true"
       spacingx="100px"
       spacingy="100px" />
  </sodipodi:namedview>
  <metadata
     id="metadata4660">
    <rdf:RDF>
      <cc:Work
         rdf:about="">
        <dc:format>image/svg+xml</dc:format>
        <dc:type
           rdf:resource="http://purl.org/dc/dcmitype/StillImage" />
        <dc:title></dc:title>
      </cc:Work>
    </rdf:RDF>
  </metadata>
  <g
     inkscape:label="Layer 1"
     inkscape:groupmode="layer"
     id="layer1"
     transform="translate(0,-352.36218)">
    <g
       transform="matrix(13.207801,0,0,-13.207801,-6028.5688,6656.9739)"
       id="g3563">
      <g
         id="g3565"
         clip-path="url(#clipPath3567)">
        <path
           style="fill:#000000"
           d="m 461.28907,439.49451 0,11.0803 -0.59788,0.66065 -0.59788,0.66065 1.13976,0 1.13978,0 0,-0.72252 0,-0.72252 0.36126,0 0.36126,0 0,0.72252 0,0.72252 0.54188,0 0.5419,0 0,-0.52057 c 0,-0.28631 0.1735,-0.62781 0.38558,-0.75887 l 0.38557,-0.23829 0.19845,0.75886 0.19845,0.75887 0.49975,0 0.49976,0 0,-0.72252 0,-0.72252 0.36126,0 0.36125,0 0,0.72252 0,0.72252 0.49977,0 0.49975,0 0.19845,-0.75887 0.19845,-0.75886 0.38557,0.23829 c 0.21207,0.13106 0.38558,0.47256 0.38558,0.75887 l 0,0.52057 0.54189,0 0.5419,0 0,-0.72252 0,-0.72252 0.36125,0 0.36126,0 0,0.72252 0,0.72252 0.49976,0 0.49975,0 0.19845,-0.75887 0.19844,-0.75886 0.38558,0.23829 c 0.21208,0.13106 0.38558,0.47256 0.38558,0.75887 l 0,0.52057 0.90315,0 0.90315,0 0,-0.33994 c 0,-0.18697 -0.16256,-0.44041 -0.36126,-0.56321 l -0.36126,-0.22327 0,-11.17774 0,-11.17775 -6.50268,0 -6.50268,0 0,11.08031 z m 5.78015,-5.66141 0,3.6126 -0.50806,0 -0.50807,0 0.18895,0.72253 0.18894,0.72251 -1.15026,0 -1.15026,0 0.22932,-0.72251 0.22932,-0.72253 -0.56624,0 -0.56624,0 0,-3.6126 0,-3.6126 1.8063,0 1.8063,0 0,3.6126 z m 4.69639,0 0,3.6126 -0.56623,0 -0.56624,0 0.22932,0.72253 0.22932,0.72251 -1.15026,0 -1.15026,0 0.18895,-0.72251 0.18894,-0.72253 -0.50807,0 -0.50807,0 0,-3.6126 0,-3.6126 1.8063,0 1.8063,0 0,3.6126 z m -4.69639,9.5734 0,3.79322 -0.53055,0 -0.53055,0 0.20795,0.5419 0.20794,0.54189 -1.11109,0 -1.11109,0 0.20793,-0.54189 0.20795,-0.5419 -0.58054,0 -0.58055,0 0,-3.79322 0,-3.79323 1.8063,0 1.8063,0 0,3.79323 z m 4.69639,0 0,3.79322 -0.53055,0 -0.53055,0 0.20793,0.5419 0.20795,0.54189 -1.16108,0 -1.16108,0 0.20794,-0.54189 0.20795,-0.5419 -0.53056,0 -0.53055,0 0,-3.79322 0,-3.79323 1.8063,0 1.8063,0 0,3.79323 z m 4.34378,6.40677 0.0249,21.39907 -0.37804,0.12602 c -0.20792,0.0693 -0.37803,0.27502 -0.37803,0.45716 l 0,0.33116 0.90314,0 0.90316,0 0,-0.5419 0,-0.54188 0.54188,0 0.54189,0 0,0.54188 0,0.5419 0.5419,0 0.54188,0 0,-0.5419 0,-0.54188 0.36126,0 0.36127,0 0,0.54188 0,0.5419 0.54189,0 0.54188,0 0,-0.5419 0,-0.54188 0.5419,0 0.54189,0 0,0.54188 0,0.5419 0.54188,0 0.5419,0 0,-0.5419 0,-0.54188 0.36126,0 0.36126,0 0,0.54188 0,0.5419 0.54188,0 0.5419,0 0,-0.5419 0,-0.54188 0.54189,0 0.54188,0 0,0.54188 0,0.5419 0.5419,0 0.54189,0 0,-0.5419 0,-0.54188 0.36126,0 0.36126,0 0,0.54188 0,0.5419 1.08378,0 1.08378,0 0,-0.36127 c 0,-0.19869 -0.16257,-0.36126 -0.36126,-0.36126 l -0.36126,0 0,-21.49497 0,-21.49498 -0.72252,0 -0.72252,0 0,1.08379 0,1.08377 -3.07071,0 -3.07071,0 0,-1.08377 0,-1.08379 -2.89821,0 -2.89821,0 0.0249,21.39907 z m 10.82915,-12.0063 0,5.78016 -0.58403,0 -0.58402,0 0.18894,0.72252 0.18894,0.72252 -1.0743,0 -1.0743,0 0.22931,-0.72252 0.22932,-0.72252 -0.56623,0 -0.56623,0 0,-5.78016 0,-5.78017 1.8063,0 1.8063,0 0,5.78017 z m -4.69638,0.90314 0,4.87702 -0.58403,0 -0.58402,0 0.18894,0.72252 0.18894,0.72252 -1.01613,0 -1.01615,0 0.18895,-0.72252 0.18894,-0.72252 -0.58402,0 -0.58402,0 0,-4.87702 0,-4.87701 1.8063,0 1.8063,0 0,4.87701 z m 0,12.64411 0,4.87701 -0.56624,0 -0.56624,0 0.22932,0.72252 0.22932,0.72252 -1.0743,0 -1.07431,0 0.18895,-0.72252 0.18894,-0.72252 -0.58402,0 -0.58402,0 0,-4.87701 0,-4.87701 1.8063,0 1.8063,0 0,4.87701 z m 4.69638,0 0,4.87701 -0.56624,0 -0.56623,0 0.22931,0.72252 0.22932,0.72252 -1.13246,0 -1.13247,0 0.22931,-0.72252 0.22932,-0.72252 -0.56623,0 -0.56623,0 0,-4.87701 0,-4.87701 1.8063,0 1.8063,0 0,4.87701 z m 4.69638,-6.57173 0,16.36829 -0.5304,0.70125 c -0.29172,0.38569 -0.53557,0.90447 -0.54189,1.15283 l -0.0115,0.45157 0.90315,0 0.90315,0 0,-0.72252 0,-0.72252 0.5419,0 0.54188,0 0,0.72252 0,0.72252 0.39508,0 0.39508,0 0.18894,-0.72252 0.18895,-0.72252 0.31913,0 0.31912,0 0,0.72252 0,0.72252 0.54189,0 0.5419,0 0,-0.72252 0,-0.72252 0.54188,0 0.54189,0 0,0.72252 0,0.72252 0.39508,0 0.39508,0 0.18895,-0.72252 0.18894,-0.72252 0.31912,0 0.31913,0 0,0.72252 0,0.72252 0.39508,0 0.39508,0 0.18895,-0.72252 0.18895,-0.72252 0.49975,0 0.49976,0 0,0.5419 0,0.54188 0.54188,0 0.54189,0 0,-0.54188 0,-0.5419 0.36127,0 0.36126,0 0,0.5419 0,0.54188 1.10999,0 1.11001,0 -0.74874,-0.95186 -0.74875,-0.95188 0,-16.38861 0,-16.38862 -6.14141,0 -6.14143,0 0,16.36829 z m 5.4189,-8.23993 0,3.79322 -0.36126,0 -0.36126,0 0,0.72253 0,0.72252 -1.12591,0 -1.12592,0 0.18895,-0.72252 0.18893,-0.72253 -0.50806,0 -0.50807,0 0,-3.79322 0,-3.79323 1.8063,0 1.8063,0 0,3.79323 z m 4.69638,0 0,3.79322 -0.53055,0 -0.53055,0 0.20794,0.54189 0.20795,0.5419 -1.16109,0 -1.16108,0 0.20795,-0.5419 0.20793,-0.54189 -0.53055,0 -0.53055,0 0,-3.79322 0,-3.79323 1.8063,0 1.8063,0 0,3.79323 z m -4.69638,9.57339 0,3.6126 -0.36126,0 -0.36126,0 0,0.72252 0,0.72252 -1.10812,0 -1.10813,0 0.22932,-0.72252 0.22931,-0.72252 -0.56622,0 -0.56624,0 0,-3.6126 0,-3.61261 1.8063,0 1.8063,0 0,3.61261 z m 4.69638,0 0,3.6126 -0.36125,0 -0.36126,0 0,0.72252 0,0.72252 -1.08379,0 -1.08378,0 0,-0.72252 0,-0.72252 -0.36126,0 -0.36126,0 0,-3.6126 0,-3.61261 1.8063,0 1.8063,0 0,3.61261 z m -41.67279,7.03737 -0.21071,0.54909 7.78586,0 7.78586,0 -0.15027,-0.45158 -0.15027,-0.45157 -7.42488,-0.0975 -7.42488,-0.0976 -0.21071,0.5491 z m 30.11247,11.38689 0,0.36126 7.58647,0 7.58645,0 0,-0.36126 0,-0.36125 -7.58645,0 -7.58647,0 0,0.36125 z m -14.92496,8.5427 c -0.13638,0.13639 -0.24797,0.38344 -0.24797,0.54901 l 0,0.30106 7.7972,0 7.7972,0 -0.15027,-0.45157 -0.15028,-0.45158 -7.39896,-0.0974 -7.39895,-0.0974 -0.24797,0.24796 z"
           id="path3741"
           inkscape:connector-curvature="0" />
      </g>
    </g>
  </g>
</svg>
