<?xml version="1.0" encoding="UTF-8" standalone="no"?>
<!-- Created with Inkscape (http://www.inkscape.org/) -->
<svg id="svg4655" xmlns:rdf="http://www.w3.org/1999/02/22-rdf-syntax-ns#" xmlns="http://www.w3.org/2000/svg" height="700" width="700" version="1.1" xmlns:cc="http://creativecommons.org/ns#" xmlns:dc="http://purl.org/dc/elements/1.1/">
 <defs id="defs4657"></defs>
 <metadata id="metadata4660">
  <rdf:RDF>
   <cc:Work rdf:about="">
    <dc:format>image/svg+xml</dc:format>
    <dc:type rdf:resource="http://purl.org/dc/dcmitype/StillImage"/>
    <dc:title/>
   </cc:Work>
  </rdf:RDF>
 </metadata>
 <g id="layer1" fill="#f9f9f9" transform="translate(0,-352.36218)">
  <path id="rect3188" d="m124.65,462.13c-13.211,0-23.847,10.636-23.847,23.847v42.924h-25.039c-13.211,0-23.847,10.636-23.847,23.847v310.01c0,13.211,10.636,23.847,23.847,23.847h548.47c13.211,0,23.847-10.636,23.847-23.847v-310.01c0-13.211-10.636-23.847-23.847-23.847h-382.74v-42.924c0-13.211-10.636-23.847-23.847-23.847h-93.002zm219.87,81.079c1.2175-0.0173,2.4315-0.014,3.6515,0,18.241-0.26871,36.518,2.534,53.655,8.3836,57.074,17.68,100.44,69.662,110.37,128.1,11.474,58.956-14.46,122.1-61.591,158.32-49.774,40.182-123.41,44.827-178.96,14.569-60.328-30.862-94.449-102.32-84.618-168.83,9.4737-76.56,80.795-139.46,157.5-140.55zm191.22,27.088,20.605,0c13.211,0,23.847,10.636,23.847,23.847v0.37261c0,13.211-10.636,23.847-23.847,23.847h-20.605c-13.211,0-23.847-10.636-23.847-23.847v-0.37261c0-13.211,10.636-23.847,23.847-23.847z"/>
  <path id="path3190" d="m418.61,347.15a72.125,68.589,0,1,1,-144.25,0,72.125,68.589,0,1,1,144.25,0z" transform="translate(0,352.36218)"/>
  <path id="path3192-8" d="m348.25,593.04c-63.885-0.65362-120.64,61.826-112.71,125.72,5.3572,56.599,57.834,106.5,115.73,103.81,52.265-0.67814,103.01-40.181,111.41-92.778,9.9382-50.226-17.134-106.4-65.206-126.31-15.363-7.1399-32.239-10.853-49.221-10.433z"/>
 </g>
</svg>
