<?xml version="1.0" encoding="UTF-8" standalone="no"?>
<!-- Created with Inkscape (http://www.inkscape.org/) -->

<svg
   xmlns:dc="http://purl.org/dc/elements/1.1/"
   xmlns:cc="http://creativecommons.org/ns#"
   xmlns:rdf="http://www.w3.org/1999/02/22-rdf-syntax-ns#"
   xmlns:svg="http://www.w3.org/2000/svg"
   xmlns="http://www.w3.org/2000/svg"
   xmlns:sodipodi="http://sodipodi.sourceforge.net/DTD/sodipodi-0.dtd"
   xmlns:inkscape="http://www.inkscape.org/namespaces/inkscape"
   width="700"
   height="700"
   id="svg4655"
   version="1.1"
   inkscape:version="0.48.4 r9939"
   sodipodi:docname="stormwater.svg">
  <defs
     id="defs4657">
    <clipPath
       clipPathUnits="userSpaceOnUse"
       id="clipPath3363">
      <path
         inkscape:connector-curvature="0"
         d="m 456.44,556.38 52.999,0 0,53 -52.999,0 0,-53 z"
         id="path3365" />
    </clipPath>
    <clipPath
       clipPathUnits="userSpaceOnUse"
       id="clipPath3309">
      <path
         inkscape:connector-curvature="0"
         d="m 456.44,621.5 52.999,0 0,52.999 -52.999,0 0,-52.999 z"
         id="path3311" />
    </clipPath>
    <clipPath
       clipPathUnits="userSpaceOnUse"
       id="clipPath3363-1">
      <path
         inkscape:connector-curvature="0"
         d="m 456.44,556.38 52.999,0 0,53 -52.999,0 0,-53 z"
         id="path3365-1" />
    </clipPath>
    <clipPath
       clipPathUnits="userSpaceOnUse"
       id="clipPath3567">
      <path
         inkscape:connector-curvature="0"
         d="m 456.44,424.34 52.999,0 0,53 -52.999,0 0,-53 z"
         id="path3569" />
    </clipPath>
  </defs>
  <sodipodi:namedview
     id="base"
     pagecolor="#ffffff"
     bordercolor="#666666"
     borderopacity="1.0"
     inkscape:pageopacity="0.0"
     inkscape:pageshadow="2"
     inkscape:zoom="1"
     inkscape:cx="342.42163"
     inkscape:cy="266.28607"
     inkscape:document-units="px"
     inkscape:current-layer="g3565"
     showgrid="true"
     inkscape:window-width="1920"
     inkscape:window-height="1028"
     inkscape:window-x="0"
     inkscape:window-y="0"
     inkscape:window-maximized="1"
     showguides="true"
     inkscape:snap-global="true"
     objecttolerance="10000"
     guidetolerance="20"
     inkscape:snap-bbox="true"
     inkscape:bbox-paths="false"
     inkscape:bbox-nodes="true"
     inkscape:snap-bbox-midpoints="false"
     gridtolerance="10">
    <inkscape:grid
       type="xygrid"
       id="grid4920"
       empspacing="5"
       visible="true"
       enabled="true"
       snapvisiblegridlinesonly="true"
       spacingx="100px"
       spacingy="100px" />
  </sodipodi:namedview>
  <metadata
     id="metadata4660">
    <rdf:RDF>
      <cc:Work
         rdf:about="">
        <dc:format>image/svg+xml</dc:format>
        <dc:type
           rdf:resource="http://purl.org/dc/dcmitype/StillImage" />
        <dc:title></dc:title>
      </cc:Work>
    </rdf:RDF>
  </metadata>
  <g
     inkscape:label="Layer 1"
     inkscape:groupmode="layer"
     id="layer1"
     transform="translate(0,-352.36218)">
    <g
       transform="matrix(13.207801,0,0,-13.207801,-6028.5688,6656.9739)"
       id="g3563">
      <g
         id="g3565"
         clip-path="url(#clipPath3567)">
        <g
           id="g3575"
           transform="translate(504.0957,452.9621)"
           style="fill:#f9f9f9">
          <path
             inkscape:connector-curvature="0"
             d="m 0,0 c -3.34,6.99 -13.938,5.357 -13.938,5.357 l -5.99,-0.867 c 0,0 -8.179,-1.786 -13.996,-2.781 -5.817,-0.994 -8.639,0.944 -8.639,0.944 0,0 -1.319,0.994 0.403,0.459 3.573,-1.109 5.011,0.153 5.011,0.153 1.037,2.449 4.665,2.5 4.665,2.5 0.058,6.02 7.488,5.612 7.488,5.612 7.199,10.51 12.037,-0.561 12.037,-0.561 9.043,0.714 9.561,-5.51 9.561,-5.51 C -0.864,5 0.518,-0.255 0.518,-0.255 L 0,-0.255 0,0 z"
             style="fill:#f9f9f9;fill-opacity:1;fill-rule:nonzero;stroke:none"
             id="path3577" />
        </g>
        <g
           id="g3579"
           transform="translate(465.9332,452.7071)"
           style="fill:#f9f9f9">
          <path
             inkscape:connector-curvature="0"
             d="m 0,0 -0.328,-0.571 c 0,0 0,-0.93 0.328,-0.274 C 0.328,-0.189 0,0 0,0"
             style="fill:#f9f9f9;fill-opacity:1;fill-rule:nonzero;stroke:none"
             id="path3581" />
        </g>
        <g
           id="g3583"
           transform="translate(466.4071,450.9026)"
           style="fill:#f9f9f9">
          <path
             inkscape:connector-curvature="0"
             d="m 0,0 -0.328,-0.571 c 0,0 0,-0.93 0.328,-0.274 C 0.328,-0.188 0,0 0,0"
             style="fill:#f9f9f9;fill-opacity:1;fill-rule:nonzero;stroke:none"
             id="path3585" />
        </g>
        <g
           id="g3587"
           transform="translate(469.4926,453.0697)"
           style="fill:#f9f9f9">
          <path
             inkscape:connector-curvature="0"
             d="m 0,0 -0.328,-0.571 c 0,0 0,-0.93 0.328,-0.274 C 0.328,-0.189 0,0 0,0"
             style="fill:#f9f9f9;fill-opacity:1;fill-rule:nonzero;stroke:none"
             id="path3589" />
        </g>
        <g
           id="g3591"
           transform="translate(469.9665,451.2653)"
           style="fill:#f9f9f9">
          <path
             inkscape:connector-curvature="0"
             d="m 0,0 -0.328,-0.571 c 0,0 0,-0.93 0.328,-0.274 C 0.328,-0.188 0,0 0,0"
             style="fill:#f9f9f9;fill-opacity:1;fill-rule:nonzero;stroke:none"
             id="path3593" />
        </g>
        <g
           id="g3595"
           transform="translate(468.1868,448.845)"
           style="fill:#f9f9f9">
          <path
             inkscape:connector-curvature="0"
             d="m 0,0 -0.328,-0.571 c 0,0 0,-0.93 0.328,-0.274 C 0.328,-0.188 0,0 0,0"
             style="fill:#f9f9f9;fill-opacity:1;fill-rule:nonzero;stroke:none"
             id="path3597" />
        </g>
        <g
           id="g3599"
           transform="translate(468.6606,447.0406)"
           style="fill:#f9f9f9">
          <path
             inkscape:connector-curvature="0"
             d="m 0,0 -0.328,-0.571 c 0,0 0,-0.93 0.328,-0.274 C 0.328,-0.188 0,0 0,0"
             style="fill:#f9f9f9;fill-opacity:1;fill-rule:nonzero;stroke:none"
             id="path3601" />
        </g>
        <g
           id="g3603"
           transform="translate(471.7462,449.2076)"
           style="fill:#f9f9f9">
          <path
             inkscape:connector-curvature="0"
             d="m 0,0 -0.328,-0.571 c 0,0 0,-0.93 0.328,-0.274 C 0.328,-0.189 0,0 0,0"
             style="fill:#f9f9f9;fill-opacity:1;fill-rule:nonzero;stroke:none"
             id="path3605" />
        </g>
        <g
           id="g3607"
           transform="translate(472.2201,447.4032)"
           style="fill:#f9f9f9">
          <path
             inkscape:connector-curvature="0"
             d="m 0,0 -0.328,-0.571 c 0,0 0,-0.93 0.328,-0.274 C 0.328,-0.189 0,0 0,0"
             style="fill:#f9f9f9;fill-opacity:1;fill-rule:nonzero;stroke:none"
             id="path3609" />
        </g>
        <g
           id="g3611"
           transform="translate(494.3657,455.7216)"
           style="fill:#f9f9f9">
          <path
             inkscape:connector-curvature="0"
             d="m 0,0 -0.328,-0.571 c 0,0 0,-0.93 0.328,-0.274 C 0.328,-0.188 0,0 0,0"
             style="fill:#f9f9f9;fill-opacity:1;fill-rule:nonzero;stroke:none"
             id="path3613" />
        </g>
        <g
           id="g3615"
           transform="translate(494.8395,453.9172)"
           style="fill:#f9f9f9">
          <path
             inkscape:connector-curvature="0"
             d="m 0,0 -0.328,-0.571 c 0,0 0,-0.93 0.328,-0.274 C 0.328,-0.189 0,0 0,0"
             style="fill:#f9f9f9;fill-opacity:1;fill-rule:nonzero;stroke:none"
             id="path3617" />
        </g>
        <g
           id="g3619"
           transform="translate(497.9251,456.0843)"
           style="fill:#f9f9f9">
          <path
             inkscape:connector-curvature="0"
             d="m 0,0 -0.328,-0.571 c 0,0 0,-0.93 0.328,-0.274 C 0.328,-0.189 0,0 0,0"
             style="fill:#f9f9f9;fill-opacity:1;fill-rule:nonzero;stroke:none"
             id="path3621" />
        </g>
        <g
           id="g3623"
           transform="translate(498.399,454.2798)"
           style="fill:#f9f9f9">
          <path
             inkscape:connector-curvature="0"
             d="m 0,0 -0.328,-0.571 c 0,0 0,-0.93 0.328,-0.274 C 0.328,-0.189 0,0 0,0"
             style="fill:#f9f9f9;fill-opacity:1;fill-rule:nonzero;stroke:none"
             id="path3625" />
        </g>
        <g
           id="g3627"
           transform="translate(496.6192,451.8596)"
           style="fill:#f9f9f9">
          <path
             inkscape:connector-curvature="0"
             d="m 0,0 -0.328,-0.571 c 0,0 0,-0.93 0.328,-0.274 C 0.328,-0.188 0,0 0,0"
             style="fill:#f9f9f9;fill-opacity:1;fill-rule:nonzero;stroke:none"
             id="path3629" />
        </g>
        <g
           id="g3631"
           transform="translate(497.0931,450.0552)"
           style="fill:#f9f9f9">
          <path
             inkscape:connector-curvature="0"
             d="m 0,0 -0.328,-0.571 c 0,0 0,-0.93 0.328,-0.274 C 0.328,-0.189 0,0 0,0"
             style="fill:#f9f9f9;fill-opacity:1;fill-rule:nonzero;stroke:none"
             id="path3633" />
        </g>
        <g
           id="g3635"
           transform="translate(500.1787,452.2222)"
           style="fill:#f9f9f9">
          <path
             inkscape:connector-curvature="0"
             d="m 0,0 -0.328,-0.571 c 0,0 0,-0.93 0.328,-0.274 C 0.328,-0.188 0,0 0,0"
             style="fill:#f9f9f9;fill-opacity:1;fill-rule:nonzero;stroke:none"
             id="path3637" />
        </g>
        <g
           id="g3639"
           transform="translate(500.6526,450.4178)"
           style="fill:#f9f9f9">
          <path
             inkscape:connector-curvature="0"
             d="m 0,0 -0.328,-0.571 c 0,0 0,-0.93 0.328,-0.274 C 0.328,-0.189 0,0 0,0"
             style="fill:#f9f9f9;fill-opacity:1;fill-rule:nonzero;stroke:none"
             id="path3641" />
        </g>
        <g
           id="g3643"
           transform="translate(487.0048,455.8986)"
           style="fill:#f9f9f9">
          <path
             inkscape:connector-curvature="0"
             d="m 0,0 -0.328,-0.571 c 0,0 0,-0.93 0.328,-0.274 C 0.328,-0.188 0,0 0,0"
             style="fill:#f9f9f9;fill-opacity:1;fill-rule:nonzero;stroke:none"
             id="path3645" />
        </g>
        <g
           id="g3647"
           transform="translate(487.4786,454.0942)"
           style="fill:#f9f9f9">
          <path
             inkscape:connector-curvature="0"
             d="m 0,0 -0.328,-0.571 c 0,0 0,-0.93 0.328,-0.274 C 0.328,-0.188 0,0 0,0"
             style="fill:#f9f9f9;fill-opacity:1;fill-rule:nonzero;stroke:none"
             id="path3649" />
        </g>
        <g
           id="g3651"
           transform="translate(490.5642,456.2612)"
           style="fill:#f9f9f9">
          <path
             inkscape:connector-curvature="0"
             d="m 0,0 -0.328,-0.571 c 0,0 0,-0.93 0.328,-0.274 C 0.328,-0.188 0,0 0,0"
             style="fill:#f9f9f9;fill-opacity:1;fill-rule:nonzero;stroke:none"
             id="path3653" />
        </g>
        <g
           id="g3655"
           transform="translate(491.0381,454.4568)"
           style="fill:#f9f9f9">
          <path
             inkscape:connector-curvature="0"
             d="m 0,0 -0.328,-0.571 c 0,0 0,-0.93 0.328,-0.274 C 0.328,-0.188 0,0 0,0"
             style="fill:#f9f9f9;fill-opacity:1;fill-rule:nonzero;stroke:none"
             id="path3657" />
        </g>
        <g
           id="g3659"
           transform="translate(489.2584,452.0365)"
           style="fill:#f9f9f9">
          <path
             inkscape:connector-curvature="0"
             d="m 0,0 -0.328,-0.571 c 0,0 0,-0.93 0.328,-0.274 C 0.328,-0.189 0,0 0,0"
             style="fill:#f9f9f9;fill-opacity:1;fill-rule:nonzero;stroke:none"
             id="path3661" />
        </g>
        <g
           id="g3663"
           transform="translate(489.7323,450.2321)"
           style="fill:#f9f9f9">
          <path
             inkscape:connector-curvature="0"
             d="m 0,0 -0.328,-0.571 c 0,0 0,-0.93 0.328,-0.274 C 0.328,-0.189 0,0 0,0"
             style="fill:#f9f9f9;fill-opacity:1;fill-rule:nonzero;stroke:none"
             id="path3665" />
        </g>
        <g
           id="g3667"
           transform="translate(492.8178,452.3991)"
           style="fill:#f9f9f9">
          <path
             inkscape:connector-curvature="0"
             d="m 0,0 -0.328,-0.571 c 0,0 0,-0.93 0.328,-0.274 C 0.328,-0.188 0,0 0,0"
             style="fill:#f9f9f9;fill-opacity:1;fill-rule:nonzero;stroke:none"
             id="path3669" />
        </g>
        <g
           id="g3671"
           transform="translate(493.2917,450.5947)"
           style="fill:#f9f9f9">
          <path
             inkscape:connector-curvature="0"
             d="m 0,0 -0.328,-0.571 c 0,0 0,-0.93 0.328,-0.274 C 0.328,-0.188 0,0 0,0"
             style="fill:#f9f9f9;fill-opacity:1;fill-rule:nonzero;stroke:none"
             id="path3673" />
        </g>
        <g
           id="g3675"
           transform="translate(480.9548,453.7862)"
           style="fill:#f9f9f9">
          <path
             inkscape:connector-curvature="0"
             d="m 0,0 -0.328,-0.571 c 0,0 0,-0.93 0.328,-0.274 C 0.328,-0.188 0,0 0,0"
             style="fill:#f9f9f9;fill-opacity:1;fill-rule:nonzero;stroke:none"
             id="path3677" />
        </g>
        <g
           id="g3679"
           transform="translate(481.4287,451.9818)"
           style="fill:#f9f9f9">
          <path
             inkscape:connector-curvature="0"
             d="m 0,0 -0.328,-0.571 c 0,0 0,-0.93 0.328,-0.274 C 0.328,-0.188 0,0 0,0"
             style="fill:#f9f9f9;fill-opacity:1;fill-rule:nonzero;stroke:none"
             id="path3681" />
        </g>
        <g
           id="g3683"
           transform="translate(484.5143,454.1489)"
           style="fill:#f9f9f9">
          <path
             inkscape:connector-curvature="0"
             d="m 0,0 -0.328,-0.571 c 0,0 0,-0.93 0.328,-0.274 C 0.328,-0.189 0,0 0,0"
             style="fill:#f9f9f9;fill-opacity:1;fill-rule:nonzero;stroke:none"
             id="path3685" />
        </g>
        <g
           id="g3687"
           transform="translate(484.9881,452.3445)"
           style="fill:#f9f9f9">
          <path
             inkscape:connector-curvature="0"
             d="m 0,0 -0.328,-0.571 c 0,0 0,-0.93 0.328,-0.274 C 0.328,-0.189 0,0 0,0"
             style="fill:#f9f9f9;fill-opacity:1;fill-rule:nonzero;stroke:none"
             id="path3689" />
        </g>
        <g
           id="g3691"
           transform="translate(483.2084,449.9241)"
           style="fill:#f9f9f9">
          <path
             inkscape:connector-curvature="0"
             d="m 0,0 -0.328,-0.571 c 0,0 0,-0.93 0.328,-0.274 C 0.328,-0.188 0,0 0,0"
             style="fill:#f9f9f9;fill-opacity:1;fill-rule:nonzero;stroke:none"
             id="path3693" />
        </g>
        <g
           id="g3695"
           transform="translate(483.6823,448.1198)"
           style="fill:#f9f9f9">
          <path
             inkscape:connector-curvature="0"
             d="m 0,0 -0.328,-0.571 c 0,0 0,-0.93 0.328,-0.274 C 0.328,-0.188 0,0 0,0"
             style="fill:#f9f9f9;fill-opacity:1;fill-rule:nonzero;stroke:none"
             id="path3697" />
        </g>
        <g
           id="g3699"
           transform="translate(486.7678,450.2868)"
           style="fill:#f9f9f9">
          <path
             inkscape:connector-curvature="0"
             d="m 0,0 -0.328,-0.571 c 0,0 0,-0.93 0.328,-0.274 C 0.328,-0.188 0,0 0,0"
             style="fill:#f9f9f9;fill-opacity:1;fill-rule:nonzero;stroke:none"
             id="path3701" />
        </g>
        <g
           id="g3703"
           transform="translate(487.2417,448.4824)"
           style="fill:#f9f9f9">
          <path
             inkscape:connector-curvature="0"
             d="m 0,0 -0.328,-0.571 c 0,0 0,-0.93 0.328,-0.274 C 0.328,-0.189 0,0 0,0"
             style="fill:#f9f9f9;fill-opacity:1;fill-rule:nonzero;stroke:none"
             id="path3705" />
        </g>
        <g
           id="g3707"
           transform="translate(474.194,453.7862)"
           style="fill:#f9f9f9">
          <path
             inkscape:connector-curvature="0"
             d="m 0,0 -0.328,-0.571 c 0,0 0,-0.93 0.328,-0.274 C 0.328,-0.188 0,0 0,0"
             style="fill:#f9f9f9;fill-opacity:1;fill-rule:nonzero;stroke:none"
             id="path3709" />
        </g>
        <g
           id="g3711"
           transform="translate(474.6679,451.9818)"
           style="fill:#f9f9f9">
          <path
             inkscape:connector-curvature="0"
             d="m 0,0 -0.328,-0.571 c 0,0 0,-0.93 0.328,-0.274 C 0.328,-0.188 0,0 0,0"
             style="fill:#f9f9f9;fill-opacity:1;fill-rule:nonzero;stroke:none"
             id="path3713" />
        </g>
        <g
           id="g3715"
           transform="translate(477.7534,454.1489)"
           style="fill:#f9f9f9">
          <path
             inkscape:connector-curvature="0"
             d="m 0,0 -0.328,-0.571 c 0,0 0,-0.93 0.328,-0.274 C 0.328,-0.189 0,0 0,0"
             style="fill:#f9f9f9;fill-opacity:1;fill-rule:nonzero;stroke:none"
             id="path3717" />
        </g>
        <g
           id="g3719"
           transform="translate(478.2273,452.3445)"
           style="fill:#f9f9f9">
          <path
             inkscape:connector-curvature="0"
             d="m 0,0 -0.328,-0.571 c 0,0 0,-0.93 0.328,-0.274 C 0.328,-0.189 0,0 0,0"
             style="fill:#f9f9f9;fill-opacity:1;fill-rule:nonzero;stroke:none"
             id="path3721" />
        </g>
        <g
           id="g3723"
           transform="translate(476.4476,449.9241)"
           style="fill:#f9f9f9">
          <path
             inkscape:connector-curvature="0"
             d="m 0,0 -0.328,-0.571 c 0,0 0,-0.93 0.328,-0.274 C 0.328,-0.188 0,0 0,0"
             style="fill:#f9f9f9;fill-opacity:1;fill-rule:nonzero;stroke:none"
             id="path3725" />
        </g>
        <g
           id="g3727"
           transform="translate(476.9215,448.1198)"
           style="fill:#f9f9f9">
          <path
             inkscape:connector-curvature="0"
             d="m 0,0 -0.328,-0.571 c 0,0 0,-0.93 0.328,-0.274 C 0.328,-0.188 0,0 0,0"
             style="fill:#f9f9f9;fill-opacity:1;fill-rule:nonzero;stroke:none"
             id="path3729" />
        </g>
        <g
           id="g3731"
           transform="translate(480.007,450.2868)"
           style="fill:#f9f9f9">
          <path
             inkscape:connector-curvature="0"
             d="m 0,0 -0.328,-0.571 c 0,0 0,-0.93 0.328,-0.274 C 0.328,-0.188 0,0 0,0"
             style="fill:#f9f9f9;fill-opacity:1;fill-rule:nonzero;stroke:none"
             id="path3733" />
        </g>
        <g
           id="g3735"
           transform="translate(480.4809,448.4824)"
           style="fill:#f9f9f9">
          <path
             inkscape:connector-curvature="0"
             d="m 0,0 -0.328,-0.571 c 0,0 0,-0.93 0.328,-0.274 C 0.328,-0.189 0,0 0,0"
             style="fill:#f9f9f9;fill-opacity:1;fill-rule:nonzero;stroke:none"
             id="path3737" />
        </g>
        <g
           id="g3739"
           transform="translate(466.881,445.4894)"
           style="fill:#f9f9f9">
          <path
             inkscape:connector-curvature="0"
             d="m 0,0 -0.328,-0.571 c 0,0 0,-0.93 0.328,-0.274 C 0.328,-0.188 0,0 0,0"
             style="fill:#f9f9f9;fill-opacity:1;fill-rule:nonzero;stroke:none"
             id="path3741" />
        </g>
        <g
           id="g3743"
           transform="translate(475.5191,444.4103)"
           style="fill:#f9f9f9">
          <path
             inkscape:connector-curvature="0"
             d="m 0,0 -0.328,-0.571 c 0,0 0,-0.93 0.328,-0.274 C 0.328,-0.188 0,0 0,0"
             style="fill:#f9f9f9;fill-opacity:1;fill-rule:nonzero;stroke:none"
             id="path3745" />
        </g>
        <g
           id="g3747"
           transform="translate(474.6679,448.668)"
           style="fill:#f9f9f9">
          <path
             inkscape:connector-curvature="0"
             d="m 0,0 -0.328,-0.571 c 0,0 0,-0.93 0.328,-0.274 C 0.328,-0.188 0,0 0,0"
             style="fill:#f9f9f9;fill-opacity:1;fill-rule:nonzero;stroke:none"
             id="path3749" />
        </g>
        <g
           id="g3751"
           transform="translate(472.5547,452.1675)"
           style="fill:#f9f9f9">
          <path
             inkscape:connector-curvature="0"
             d="m 0,0 -0.328,-0.571 c 0,0 0,-0.93 0.328,-0.274 C 0.328,-0.188 0,0 0,0"
             style="fill:#f9f9f9;fill-opacity:1;fill-rule:nonzero;stroke:none"
             id="path3753" />
        </g>
        <g
           id="g3755"
           transform="translate(471.0119,444.4103)"
           style="fill:#f9f9f9">
          <path
             inkscape:connector-curvature="0"
             d="m 0,0 -0.328,-0.571 c 0,0 0,-0.93 0.328,-0.274 C 0.328,-0.188 0,0 0,0"
             style="fill:#f9f9f9;fill-opacity:1;fill-rule:nonzero;stroke:none"
             id="path3757" />
        </g>
        <g
           id="g3759"
           transform="translate(481.9026,446.029)"
           style="fill:#f9f9f9">
          <path
             inkscape:connector-curvature="0"
             d="m 0,0 -0.328,-0.571 c 0,0 0,-0.93 0.328,-0.274 C 0.328,-0.188 0,0 0,0"
             style="fill:#f9f9f9;fill-opacity:1;fill-rule:nonzero;stroke:none"
             id="path3761" />
        </g>
        <g
           id="g3763"
           transform="translate(478.9468,445.4894)"
           style="fill:#f9f9f9">
          <path
             inkscape:connector-curvature="0"
             d="m 0,0 -0.328,-0.571 c 0,0 0,-0.93 0.328,-0.274 C 0.328,-0.188 0,0 0,0"
             style="fill:#f9f9f9;fill-opacity:1;fill-rule:nonzero;stroke:none"
             id="path3765" />
        </g>
        <g
           id="g3767"
           transform="translate(474.194,445.4894)"
           style="fill:#f9f9f9">
          <path
             inkscape:connector-curvature="0"
             d="m 0,0 -0.328,-0.571 c 0,0 0,-0.93 0.328,-0.274 C 0.328,-0.188 0,0 0,0"
             style="fill:#f9f9f9;fill-opacity:1;fill-rule:nonzero;stroke:none"
             id="path3769" />
        </g>
        <g
           id="g3771"
           transform="translate(484.7512,445.4225)"
           style="fill:#f9f9f9">
          <path
             inkscape:connector-curvature="0"
             d="m 0,0 -0.328,-0.571 c 0,0 0,-0.93 0.328,-0.274 C 0.328,-0.188 0,0 0,0"
             style="fill:#f9f9f9;fill-opacity:1;fill-rule:nonzero;stroke:none"
             id="path3773" />
        </g>
        <g
           id="g3775"
           transform="translate(488.3106,445.7851)"
           style="fill:#f9f9f9">
          <path
             inkscape:connector-curvature="0"
             d="m 0,0 -0.328,-0.571 c 0,0 0,-0.93 0.328,-0.274 C 0.328,-0.189 0,0 0,0"
             style="fill:#f9f9f9;fill-opacity:1;fill-rule:nonzero;stroke:none"
             id="path3777" />
        </g>
        <g
           id="g3779"
           transform="translate(486.5309,443.3648)"
           style="fill:#f9f9f9">
          <path
             inkscape:connector-curvature="0"
             d="m 0,0 -0.328,-0.571 c 0,0 0,-0.93 0.328,-0.274 C 0.328,-0.188 0,0 0,0"
             style="fill:#f9f9f9;fill-opacity:1;fill-rule:nonzero;stroke:none"
             id="path3781" />
        </g>
        <g
           id="g3783"
           transform="translate(487.0048,441.5604)"
           style="fill:#f9f9f9">
          <path
             inkscape:connector-curvature="0"
             d="m 0,0 -0.328,-0.571 c 0,0 0,-0.93 0.328,-0.274 C 0.328,-0.188 0,0 0,0"
             style="fill:#f9f9f9;fill-opacity:1;fill-rule:nonzero;stroke:none"
             id="path3785" />
        </g>
        <g
           id="g3787"
           transform="translate(490.0903,443.7275)"
           style="fill:#f9f9f9">
          <path
             inkscape:connector-curvature="0"
             d="m 0,0 -0.328,-0.571 c 0,0 0,-0.93 0.328,-0.274 C 0.328,-0.189 0,0 0,0"
             style="fill:#f9f9f9;fill-opacity:1;fill-rule:nonzero;stroke:none"
             id="path3789" />
        </g>
        <g
           id="g3791"
           transform="translate(490.5642,441.9231)"
           style="fill:#f9f9f9">
          <path
             inkscape:connector-curvature="0"
             d="m 0,0 -0.328,-0.571 c 0,0 0,-0.93 0.328,-0.274 C 0.328,-0.189 0,0 0,0"
             style="fill:#f9f9f9;fill-opacity:1;fill-rule:nonzero;stroke:none"
             id="path3793" />
        </g>
        <g
           id="g3795"
           transform="translate(477.7534,441.8093)"
           style="fill:#f9f9f9">
          <path
             inkscape:connector-curvature="0"
             d="m 0,0 -0.328,-0.571 c 0,0 0,-0.93 0.328,-0.274 C 0.328,-0.189 0,0 0,0"
             style="fill:#f9f9f9;fill-opacity:1;fill-rule:nonzero;stroke:none"
             id="path3797" />
        </g>
        <g
           id="g3799"
           transform="translate(478.2273,440.0049)"
           style="fill:#f9f9f9">
          <path
             inkscape:connector-curvature="0"
             d="m 0,0 -0.328,-0.571 c 0,0 0,-0.93 0.328,-0.274 C 0.328,-0.189 0,0 0,0"
             style="fill:#f9f9f9;fill-opacity:1;fill-rule:nonzero;stroke:none"
             id="path3801" />
        </g>
        <g
           id="g3803"
           transform="translate(481.3129,442.1719)"
           style="fill:#f9f9f9">
          <path
             inkscape:connector-curvature="0"
             d="m 0,0 -0.328,-0.571 c 0,0 0,-0.93 0.328,-0.274 C 0.328,-0.188 0,0 0,0"
             style="fill:#f9f9f9;fill-opacity:1;fill-rule:nonzero;stroke:none"
             id="path3805" />
        </g>
        <g
           id="g3807"
           transform="translate(481.7868,440.3676)"
           style="fill:#f9f9f9">
          <path
             inkscape:connector-curvature="0"
             d="m 0,0 -0.328,-0.571 c 0,0 0,-0.93 0.328,-0.274 C 0.328,-0.188 0,0 0,0"
             style="fill:#f9f9f9;fill-opacity:1;fill-rule:nonzero;stroke:none"
             id="path3809" />
        </g>
        <g
           id="g3811"
           transform="translate(473.9571,442.3489)"
           style="fill:#f9f9f9">
          <path
             inkscape:connector-curvature="0"
             d="m 0,0 -0.328,-0.571 c 0,0 0,-0.93 0.328,-0.274 C 0.328,-0.188 0,0 0,0"
             style="fill:#f9f9f9;fill-opacity:1;fill-rule:nonzero;stroke:none"
             id="path3813" />
        </g>
        <g
           id="g3815"
           transform="translate(502.2633,448.3054)"
           style="fill:#f9f9f9">
          <path
             inkscape:connector-curvature="0"
             d="m 0,0 -0.328,-0.571 c 0,0 0,-0.93 0.328,-0.274 C 0.328,-0.188 0,0 0,0"
             style="fill:#f9f9f9;fill-opacity:1;fill-rule:nonzero;stroke:none"
             id="path3817" />
        </g>
        <g
           id="g3819"
           transform="translate(496.6192,447.4032)"
           style="fill:#f9f9f9">
          <path
             inkscape:connector-curvature="0"
             d="m 0,0 -0.328,-0.571 c 0,0 0,-0.93 0.328,-0.274 C 0.328,-0.189 0,0 0,0"
             style="fill:#f9f9f9;fill-opacity:1;fill-rule:nonzero;stroke:none"
             id="path3821" />
        </g>
        <g
           id="g3823"
           transform="translate(499.7728,446.5016)"
           style="fill:#f9f9f9">
          <path
             inkscape:connector-curvature="0"
             d="m 0,0 -0.328,-0.571 c 0,0 0,-0.93 0.328,-0.274 C 0.328,-0.188 0,0 0,0"
             style="fill:#f9f9f9;fill-opacity:1;fill-rule:nonzero;stroke:none"
             id="path3825" />
        </g>
        <g
           id="g3827"
           transform="translate(501.5525,444.444)"
           style="fill:#f9f9f9">
          <path
             inkscape:connector-curvature="0"
             d="m 0,0 -0.328,-0.571 c 0,0 0,-0.93 0.328,-0.274 C 0.328,-0.188 0,0 0,0"
             style="fill:#f9f9f9;fill-opacity:1;fill-rule:nonzero;stroke:none"
             id="path3829" />
        </g>
        <g
           id="g3831"
           transform="translate(502.0264,442.6396)"
           style="fill:#f9f9f9">
          <path
             inkscape:connector-curvature="0"
             d="m 0,0 -0.328,-0.571 c 0,0 0,-0.93 0.328,-0.274 C 0.328,-0.188 0,0 0,0"
             style="fill:#f9f9f9;fill-opacity:1;fill-rule:nonzero;stroke:none"
             id="path3833" />
        </g>
        <g
           id="g3835"
           transform="translate(483.9193,443.5418)"
           style="fill:#f9f9f9">
          <path
             inkscape:connector-curvature="0"
             d="m 0,0 -0.328,-0.571 c 0,0 0,-0.93 0.328,-0.274 C 0.328,-0.189 0,0 0,0"
             style="fill:#f9f9f9;fill-opacity:1;fill-rule:nonzero;stroke:none"
             id="path3837" />
        </g>
        <g
           id="g3839"
           transform="translate(469.2557,440.5489)"
           style="fill:#f9f9f9">
          <path
             inkscape:connector-curvature="0"
             d="m 0,0 -0.328,-0.571 c 0,0 0,-0.93 0.328,-0.274 C 0.328,-0.189 0,0 0,0"
             style="fill:#f9f9f9;fill-opacity:1;fill-rule:nonzero;stroke:none"
             id="path3841" />
        </g>
        <g
           id="g3843"
           transform="translate(493.012,446.5016)"
           style="fill:#f9f9f9">
          <path
             inkscape:connector-curvature="0"
             d="m 0,0 -0.328,-0.571 c 0,0 0,-0.93 0.328,-0.274 C 0.328,-0.188 0,0 0,0"
             style="fill:#f9f9f9;fill-opacity:1;fill-rule:nonzero;stroke:none"
             id="path3845" />
        </g>
        <g
           id="g3847"
           transform="translate(494.7917,444.444)"
           style="fill:#f9f9f9">
          <path
             inkscape:connector-curvature="0"
             d="m 0,0 -0.328,-0.571 c 0,0 0,-0.93 0.328,-0.274 C 0.328,-0.188 0,0 0,0"
             style="fill:#f9f9f9;fill-opacity:1;fill-rule:nonzero;stroke:none"
             id="path3849" />
        </g>
        <g
           id="g3851"
           transform="translate(495.2656,442.6396)"
           style="fill:#f9f9f9">
          <path
             inkscape:connector-curvature="0"
             d="m 0,0 -0.328,-0.571 c 0,0 0,-0.93 0.328,-0.274 C 0.328,-0.188 0,0 0,0"
             style="fill:#f9f9f9;fill-opacity:1;fill-rule:nonzero;stroke:none"
             id="path3853" />
        </g>
        <g
           id="g3855"
           transform="translate(498.3511,444.8066)"
           style="fill:#f9f9f9">
          <path
             inkscape:connector-curvature="0"
             d="m 0,0 -0.328,-0.571 c 0,0 0,-0.93 0.328,-0.274 C 0.328,-0.189 0,0 0,0"
             style="fill:#f9f9f9;fill-opacity:1;fill-rule:nonzero;stroke:none"
             id="path3857" />
        </g>
        <g
           id="g3859"
           transform="translate(498.825,443.0022)"
           style="fill:#f9f9f9">
          <path
             inkscape:connector-curvature="0"
             d="m 0,0 -0.328,-0.571 c 0,0 0,-0.93 0.328,-0.274 C 0.328,-0.188 0,0 0,0"
             style="fill:#f9f9f9;fill-opacity:1;fill-rule:nonzero;stroke:none"
             id="path3861" />
        </g>
        <g
           id="g3863"
           transform="translate(485.225,440.0093)"
           style="fill:#f9f9f9">
          <path
             inkscape:connector-curvature="0"
             d="m 0,0 -0.328,-0.571 c 0,0 0,-0.93 0.328,-0.274 C 0.328,-0.188 0,0 0,0"
             style="fill:#f9f9f9;fill-opacity:1;fill-rule:nonzero;stroke:none"
             id="path3865" />
        </g>
        <g
           id="g3867"
           transform="translate(493.8632,438.9301)"
           style="fill:#f9f9f9">
          <path
             inkscape:connector-curvature="0"
             d="m 0,0 -0.328,-0.571 c 0,0 0,-0.93 0.328,-0.274 C 0.328,-0.188 0,0 0,0"
             style="fill:#f9f9f9;fill-opacity:1;fill-rule:nonzero;stroke:none"
             id="path3869" />
        </g>
        <g
           id="g3871"
           transform="translate(493.012,443.1879)"
           style="fill:#f9f9f9">
          <path
             inkscape:connector-curvature="0"
             d="m 0,0 -0.328,-0.571 c 0,0 0,-0.93 0.328,-0.274 C 0.328,-0.188 0,0 0,0"
             style="fill:#f9f9f9;fill-opacity:1;fill-rule:nonzero;stroke:none"
             id="path3873" />
        </g>
        <g
           id="g3875"
           transform="translate(490.8987,446.6873)"
           style="fill:#f9f9f9">
          <path
             inkscape:connector-curvature="0"
             d="m 0,0 -0.328,-0.571 c 0,0 0,-0.93 0.328,-0.274 C 0.328,-0.188 0,0 0,0"
             style="fill:#f9f9f9;fill-opacity:1;fill-rule:nonzero;stroke:none"
             id="path3877" />
        </g>
        <g
           id="g3879"
           transform="translate(489.356,438.9301)"
           style="fill:#f9f9f9">
          <path
             inkscape:connector-curvature="0"
             d="m 0,0 -0.328,-0.571 c 0,0 0,-0.93 0.328,-0.274 C 0.328,-0.188 0,0 0,0"
             style="fill:#f9f9f9;fill-opacity:1;fill-rule:nonzero;stroke:none"
             id="path3881" />
        </g>
        <g
           id="g3883"
           transform="translate(500.2467,440.5489)"
           style="fill:#f9f9f9">
          <path
             inkscape:connector-curvature="0"
             d="m 0,0 -0.328,-0.571 c 0,0 0,-0.93 0.328,-0.274 C 0.328,-0.189 0,0 0,0"
             style="fill:#f9f9f9;fill-opacity:1;fill-rule:nonzero;stroke:none"
             id="path3885" />
        </g>
        <g
           id="g3887"
           transform="translate(497.2909,440.0093)"
           style="fill:#f9f9f9">
          <path
             inkscape:connector-curvature="0"
             d="m 0,0 -0.328,-0.571 c 0,0 0,-0.93 0.328,-0.274 C 0.328,-0.188 0,0 0,0"
             style="fill:#f9f9f9;fill-opacity:1;fill-rule:nonzero;stroke:none"
             id="path3889" />
        </g>
        <g
           id="g3891"
           transform="translate(492.5381,440.0093)"
           style="fill:#f9f9f9">
          <path
             inkscape:connector-curvature="0"
             d="m 0,0 -0.328,-0.571 c 0,0 0,-0.93 0.328,-0.274 C 0.328,-0.188 0,0 0,0"
             style="fill:#f9f9f9;fill-opacity:1;fill-rule:nonzero;stroke:none"
             id="path3893" />
        </g>
      </g>
    </g>
  </g>
</svg>
